<?xml version="1.0" standalone="yes"?>
<svg width="32" height="32">
<path style="fill:#ffffff; stroke:none;" d="M0 0L0 11L1 11L11 1L0 0z"/>
<path style="fill:#7e7893; stroke:none;" d="M11.6667 0.333334L12.3333 0.666666L11.6667 0.333334z"/>
<path style="fill:#22104d; stroke:none;" d="M3 9C6.52284 9 10.9487 6.20528 10 10L14 7L29 9C25.6745 -2.5693 6.33332 -2.62141 3 9z"/>
<path style="fill:#7b7793; stroke:none;" d="M18 0L18 1L21 1L18 0z"/>
<path style="fill:#ffffff; stroke:none;" d="M21 0L21 1L31 11L32 11L32 0L21 0z"/>
<path style="fill:#9790a8; stroke:none;" d="M7 2L8 3L7 2z"/>
<path style="fill:#8f8fa6; stroke:none;" d="M24 2L25 3L24 2z"/>
<path style="fill:#55216f; stroke:none;" d="M2 7L1 13L13 13L11 8L2 7z"/>
<path style="fill:#205473; stroke:none;" d="M14 7L13 12L31 19L30 7L28 9L14 7z"/>
<path style="fill:#a652c9; stroke:none;" d="M0 11L0 18L11 16L11 15L0 11z"/>
<path style="fill:#6b8a9e; stroke:none;" d="M31 11L31 14L32 14L31 11z"/>
<path style="fill:#484e98; stroke:none;" d="M10 15L16 13L10 15z"/>
<path style="fill:#7c3786; stroke:none;" d="M1 13L1 14L10 14L1 13z"/>
<path style="fill:#5bc1f8; stroke:none;" d="M11 15C13.7682 20.271 17.733 19.4005 23 19L23 18L19 18L19 17L25 17C21.7982 11.7665 15.9634 12.8974 11 15z"/>
<path style="fill:#22dfda; stroke:none;" d="M25 15C26.1585 17.8692 30.8199 23.6127 32 18L25 15z"/>
<path style="fill:#e567e6; stroke:none;" d="M3 16L3 17L6 17L6 18L4 20L8 16L3 16z"/>
<path style="fill:#f0d8fe; stroke:none;" d="M8 16L13 19L8 16z"/>
<path style="fill:#f140ae; stroke:none;" d="M0 21L4 21L6 18C2.82807 16.896 1.09093 17.8911 0 21z"/>
<path style="fill:#17a9dd; stroke:none;" d="M19 17L19 18L29 21C26.6819 17.032 23.3182 17.0391 19 17z"/>
<path style="fill:#d1b2fd; stroke:none;" d="M4 20L16 21C12.229 18.0332 8.26783 18.0343 4 20z"/>
<path style="fill:#bffffe; stroke:none;" d="M16 21L28 22C24.2742 19.0372 20.0439 18.2411 16 21z"/>
<path style="fill:#92b4fe; stroke:none;" d="M7 21L7 22L10 23L10 25L5 26C7.29352 30.1425 9.93484 29.6758 14 28L13 21L7 21z"/>
<path style="fill:#f8fafe; stroke:none;" d="M0 21L0 32L11 32L11 31L5 26L10 25L10 23L0 21z"/>
<path style="fill:#e177ef; stroke:none;" d="M1.66667 21.3333L2.33333 21.6667L1.66667 21.3333z"/>
<path style="fill:#f7fefe; stroke:none;" d="M12 23C16.36 28.1662 21.9876 24.5891 28 26L28 28L21 31L21 32L32 32L32 21L12 23z"/>
<path style="fill:#c5fbfc; stroke:none;" d="M16 27L16 28L28 28C25.1214 23.5598 20.2351 25.2055 16 27z"/>
<path style="fill:#e3c5fd; stroke:none;" d="M14 26L9 30L9 31L11 32L12 32L14 26z"/>
<path style="fill:#65bef6; stroke:none;" d="M12 32C17.9706 31.9954 22.8087 31.6582 27 27C21.6908 27.9857 15.1629 26.988 12 32z"/>
</svg>
