<?xml version="1.0" standalone="no"?>
<!DOCTYPE svg PUBLIC "-//W3C//DTD SVG 20010904//EN"
 "http://www.w3.org/TR/2001/REC-SVG-20010904/DTD/svg10.dtd">
<svg version="1.0" xmlns="http://www.w3.org/2000/svg"
 width="512.000000pt" height="512.000000pt" viewBox="0 0 512.000000 512.000000"
 preserveAspectRatio="xMidYMid meet">

<g transform="translate(0.000000,512.000000) scale(0.100000,-0.100000)"
fill="#000000" stroke="none">
<path d="M2372 4559 c-223 -21 -484 -95 -684 -193 -534 -261 -923 -738 -1069
-1311 -41 -160 -51 -240 -56 -450 -6 -230 6 -353 52 -536 25 -99 81 -268 94
-281 16 -18 609 352 596 372 -3 4 2 13 10 20 8 7 13 16 10 20 -3 5 -7 29 -10
54 -5 56 -28 103 -54 111 -49 15 -171 28 -171 18 0 -8 -26 -11 -140 -15 -100
-4 -151 3 -139 18 33 40 327 154 395 154 12 0 24 6 27 14 5 12 61 26 117 28
14 1 28 6 32 12 4 6 12 11 18 11 5 0 10 5 11 10 0 6 -23 18 -53 28 l-53 17 51
-5 c27 -3 77 -9 110 -13 82 -10 386 -6 475 7 107 15 102 14 241 80 111 53 347
141 379 141 6 0 25 6 42 14 66 30 250 57 386 57 151 -1 215 -10 395 -57 129
-34 154 -43 256 -93 76 -36 279 -157 405 -241 22 -14 65 -37 95 -49 103 -43
310 -144 310 -151 0 -4 -6 -13 -14 -19 -19 -16 -9 -88 15 -114 11 -12 23 -37
29 -57 5 -19 13 -51 18 -70 l9 -35 11 35 c54 163 73 538 38 755 -70 443 -256
813 -561 1121 -139 141 -239 221 -387 311 -362 221 -811 323 -1236 282z
m-1429 -1886 c-13 -2 -33 -2 -45 0 -13 2 -3 4 22 4 25 0 35 -2 23 -4z m-198
-28 c-60 -14 -115 -27 -122 -29 -21 -8 -15 2 8 14 27 15 130 36 183 38 25 0 0
-8 -69 -23z"/>
<path d="M4422 1852 c-17 -26 -43 -59 -56 -74 l-25 -26 24 -16 c13 -9 26 -16
29 -16 5 0 68 172 63 176 -1 2 -17 -18 -35 -44z"/>
<path d="M3950 1167 c-74 -45 -175 -100 -224 -122 -51 -23 -106 -56 -128 -77
-22 -21 -46 -38 -53 -38 -8 0 -18 -6 -22 -13 -4 -7 -30 -23 -57 -36 -27 -12
-78 -41 -115 -64 -131 -83 -171 -103 -299 -147 -189 -66 -411 -95 -678 -88
-169 4 -175 3 -114 -9 111 -23 436 -28 573 -9 430 61 819 248 1130 545 45 42
133 142 125 140 -1 0 -64 -37 -138 -82z"/>
</g>
</svg>
