<?xml version="1.0" standalone="yes"?>
<svg width="695" height="692">
<path style="fill:#000000; stroke:none;" d="M0 0L0 692L322 692L322 691C279.814 685.319 238.827 677.468 200 658.677C123.009 621.414 57.827 553.826 26.2037 474C8.54722 429.43 -2.23882 376.95 1.05401 329C12.9222 156.178 160.244 1 338 1L308 0L239 0L0 0z"/>
<path style="fill:#a7a7c1; stroke:none;" d="M338 0L338 1L358 1L338 0z"/>
<path style="fill:#000000; stroke:none;" d="M358 0L358 1C399.715 1 442.648 11.4943 481 27.5756C521.753 44.6638 558.174 69.4606 589.999 100.039C711.659 216.936 727.238 415.673 628.078 551.625C622.205 559.677 613.887 566.577 607.17 574C575.118 609.423 537.502 639.196 494 659.308C453.887 677.853 408.437 691 364 691L364 692L695 692L695 0L358 0z"/>
<path style="fill:#726a84; stroke:none;" d="M323 1L323 2L329 2L323 1z"/>
<path style="fill:#231e3d; stroke:none;" d="M329 1L329 2L365 2C355.441 -2.01141 339.387 1 329 1z"/>
<path style="fill:#808092; stroke:none;" d="M365 1L365 2L373 2L365 1z"/>
<path style="fill:#1b0943; stroke:none;" d="M78 133L79 133C84.0739 125.58 92.1234 112.496 102 113L101 110L117 110L115 105L120 103L124 104L132 100L127 103L127 104L137 104L138 108L141 106L140 111L147 112L143 106L151 109L149 111L152 114L161 115L155 112L156 110L152 110L152 109L163 111L163 117L165 117L169 108C170.662 109.566 172.134 113.753 174 111L179 112L177 109L187 106L186 109L183 108L183 109L199 111L199 108L202 109C205.13 106.377 208.922 106.416 212 109L213 109L211 102L218 101L223 104L222 101L229 101L228 104L238 103L238 106L241 102C243.814 104.58 245.409 113.837 250 108L251 108L250 112L258 109L258 108L252 108C257.294 104.082 271.672 97.942 278 101L279 101L280 101L280 99L285 102L289 98L298 100L302 98L300 101L302 103L302 104L300 107L305 108L305 105L307 107L323 104L327 101L328 106L325 108L333 103L334 103L337 105L340 100C340.95 104.434 347.218 103.633 351 105L352 101L363 97L362 94L359 95L357 93L357 92L359 91L359 90L358 84L355 87L337 87L335 82L338 79L339 79L338 83L348 80L347 77L354 74L352 70L361 70L361 66L360 66L357 65L363 66L362 59L367 61L367 59L370 60L368 56L375 58L378 51L377 53L378 53L384 54L384 47L392 50L391 44L391 43L397 41L397 44L401 44L398 38L403 39L403 42L404 42L406 40L403 38L407 34L408 37L413 34C415.711 34.5766 416.395 34.7675 417 32L421 34C423.704 29.507 428.458 31.2631 433 32L434 27L435 27L434 33L434 34L439 30L446 35L453 32L458 26L464 30L464 27L469 26L471 32L472 32C482.13 23.7172 503.627 40.6074 513 45.5286C537.094 58.1783 560.232 74.2238 580 93.0386C592.811 105.231 604.076 121.352 618 132C614.145 122.896 605.679 116.194 599.17 109C580.247 88.0875 557.893 69.9355 534 54.9498C430.64 -9.8761 299.022 -15.765 190 38.7531C157.06 55.2251 123.75 78.2648 99.2855 106C92.3147 113.903 80.7315 122.496 78 133z"/>
<path style="fill:#37324b; stroke:none;" d="M373 2L373 3L381 3L373 2z"/>
<path style="fill:#6d6d80; stroke:none;" d="M381.667 2.33331L382.333 2.66669L381.667 2.33331M390.667 3.33331L391.333 3.66669L390.667 3.33331z"/>
<path style="fill:#7c748b; stroke:none;" d="M296 4L296 5L299 5L296 4z"/>
<path style="fill:#42425d; stroke:none;" d="M395.667 4.33331L396.333 4.66669L395.667 4.33331z"/>
<path style="fill:#7c748b; stroke:none;" d="M397 4L397 5L400 5L397 4z"/>
<path style="fill:#726e81; stroke:none;" d="M290 5L290 6L293 6L290 5z"/>
<path style="fill:#736b80; stroke:none;" d="M401 5L401 6L406 6L401 5z"/>
<path style="fill:#454158; stroke:none;" d="M284 6L284 7L288 7L284 6z"/>
<path style="fill:#666680; stroke:none;" d="M407 6L407 7L411 7L407 6z"/>
<path style="fill:#36324b; stroke:none;" d="M412 7L412 8L416 8L412 7z"/>
<path style="fill:#56566b; stroke:none;" d="M266.667 10.3333L267.333 10.6667L266.667 10.3333z"/>
<path style="fill:#787896; stroke:none;" d="M428.667 10.3333L429.333 10.6667L428.667 10.3333z"/>
<path style="fill:#575469; stroke:none;" d="M262.667 11.3333L263.333 11.6667L262.667 11.3333z"/>
<path style="fill:#7b7b92; stroke:none;" d="M432.667 11.3333L433.333 11.6667L432.667 11.3333z"/>
<path style="fill:#575775; stroke:none;" d="M435.667 12.3333L436.333 12.6667L435.667 12.3333z"/>
<path style="fill:#77778c; stroke:none;" d="M476 25L477 26L476 25z"/>
<path style="fill:#141547; stroke:none;" d="M457 26L453 32C449.544 31.5125 447.977 32.0992 446 35L439 30L434 34L434 33L436 32L436 31L435 27L434 27L433 32C428.683 30.7916 422.841 28.782 421 34L417 32L413 34L408 37L407 34L403 38C405.436 39.7642 405.587 40.3312 403 42L403 39L402 39L398 38L401 44L397 44L397 41L391 43L391 44L392 50L384 47L384 54L377 53L378 51L375 58L368 56L370 60L367 59L367 61L362 59L363 66L357 65C357.929 66.9366 358.665 67.9705 360 66L361 66L361 70L352 70L354 74L347 77L348 80L338 83L339 79L338 79L335 82L337 87L355 87L358 84L357 92L357 93L359 95L363 97L352 101L351 105L340 103L341 107L336 109L337 112L330 118L336 120L337 119L334 117L335 113L337 113C340.258 124.641 349.108 112.695 354 109C355.553 111.836 358.386 109.961 361 109L360 111L361 111L365 109L364 104L366 106L367 106L371 102L373 106L372 101L372 100L382 92C382.134 95.2507 382.898 96.0517 386 97L390 90L393 91C393.795 97.3212 400.463 90.8942 403 89L402 85L406 87L407 83L416 82L415 86L418 84L424 85L424 84L421 84L421 79L423 82L428 77L429 77L430 81L441 79L440 84L443 83L444 87L449 87L450 80L451 83L454 78L463 79C465.338 76.616 471.002 76.5601 467 80C469.697 80.8543 470.386 80.8508 471 78L487 77L486 80L493 82L492 76L497 78L497 79L494 79L495 83L501 82L501 83L497 85L502 82L503 82L506 90L511 88L510 85L513 85L512 82L520 86L520 79L526 87L531 85L532 89L533 89L538 85L538 88L546 89L547 89L551 86L547 90C549.396 92.3379 550.862 93.9487 549 97L549 98L554 97L561 105L565 104L568 109L568 104C571.692 105.613 584.07 108.338 585 104L586 104C587.562 109.464 591.67 110.832 597 110C575.952 80.0952 538.522 58.6844 507 41.7662C499.742 37.8707 479.211 23.0833 472 32L471 32L469 26L464 27L464 30L457 26z"/>
<path style="fill:#45415a; stroke:none;" d="M207.667 30.3333L208.333 30.6667L207.667 30.3333z"/>
<path style="fill:#8484a1; stroke:none;" d="M488 30L489 31L488 30z"/>
<path style="fill:#767685; stroke:none;" d="M490 31L491 32L490 31z"/>
<path style="fill:#6e6b81; stroke:none;" d="M512 42L513 43L512 42z"/>
<path style="fill:#7b778c; stroke:none;" d="M514 43L515 44L514 43z"/>
<path style="fill:#737384; stroke:none;" d="M521 47L522 48L521 47z"/>
<path style="fill:#6f6f80; stroke:none;" d="M526 50L527 51L526 50z"/>
<path style="fill:#6d6d80; stroke:none;" d="M531 53L532 54L531 53z"/>
<path style="fill:#6f6f80; stroke:none;" d="M534 55L535 56L534 55z"/>
<path style="fill:#808092; stroke:none;" d="M549 65L550 66L549 65z"/>
<path style="fill:#787887; stroke:none;" d="M553 68L554 69L553 68z"/>
<path style="fill:#797986; stroke:none;" d="M138 71L139 72L138 71z"/>
<path style="fill:#737380; stroke:none;" d="M557 71L558 72L557 71z"/>
<path style="fill:#192658; stroke:none;" d="M463 79L454 78C453.186 81.0421 452.539 82.3761 450 80L449 87L444 87L443 83L441 84L440 84L441 79L430 81L429 77L428 77L423 82L423 79L421 79C421.29 81.9269 420.895 83.3886 424 84L424 85L418 84L415 86L416 82L407 83L406 87L402 85L403 89C400.356 90.0801 393.909 97.2073 393 91L390 90L386 97L382 92L372 100L372 101L373 106L371 102L364 104L365 109L360 111L361 109L360 109L354 109L337 124L336 138L341 137L341 136L338 133L349 134L349 137L349 138L347 138L347 139L351 142L345 140L346 144L342 144L342 147L346 147L340 152L340 153L344 153L344 154L340 154L340 155L346 154L343 160L348 156L349 156L352 159L349 153L358 152L360 154L359 157L363 156L364 162L369 157L365 156L365 155L370 153L379 152L378 155C381.85 153.648 383.36 152.051 384 148L385 148L389 150L388 153L392 151C395.143 146.914 397.622 146.18 402 149L401 144L405 141L420 144L419 140L424 138L424 134L433 132L435 128L440 130L446 125L449 127L454 122L453 126L456 127L463 123L464 126L467 125L472 127L471 123L480 127L480 130C483.952 126.782 485.905 126.955 490 130L498 127L505 133L504 126C506.678 127.506 508.258 128.531 509 125C514.122 128.031 515.255 132.679 522 132L520 134L520 135L525 133L538 134L536 131L545 134L551 138L549 141L553 141L553 145L554 145L554 142L559 143L559 140L560 140L566 142L563 137L570 136L572 141L583 137L582 139L587 142L586 139L598 153C596.49 145.521 600.125 148.648 605 150L604 147L609 145L610 145L610 148L616 149L615 146L615 145L619 146L617 151L625 152L622 153L622 154L626 154L626 155L624 157L627 154L628 154L630 157L631 157C635.537 155.666 638.765 163.326 642 166C638.241 153.226 626.677 141.687 619 131L599.996 112.329L586 104L585 104L585 107L568 104L568 109L565 104L561 105L554 97L549 98L549 97C551.93 94.3376 549.672 91.9284 547 90L551 86L547 89L546 89L538 88L538 85L533 89L532 89L531 85L526 87L520 79L520 86L519 83L512 82L513 85L510 85L511 88L506 90L503 82L502 82L497 85L501 83L501 82L495 83C494.856 80.3375 494.181 79.3638 497 79L497 78L492 76L493 82L486 80L487 77L471 78L467 80L470 79L469 76L463 79z"/>
<path style="fill:#797380; stroke:none;" d="M122 84L123 85L122 84z"/>
<path style="fill:#737386; stroke:none;" d="M573 84L574 85L573 84z"/>
<path style="fill:#2b0e4e; stroke:none;" d="M289 98L285 102C283.439 99.9341 281.977 99.0698 280 101L279 101L278 101L278 99C270.118 100.511 257.637 102.079 252 108L258 108L258 109L250 112L251 108L250 108C244.433 112.721 245.054 104.289 241 102L238 106L238 103L228 104L229 101C225.591 100.091 222.928 99.9498 223 104L218 101L211 102L213 109L212 109C211.039 104.196 202.431 106.847 202 109L199 108L199 111L183 109L183 108L187 106L177 109L179 112L174 111L169 108L165 117L163 117L163 111L152 109L152 110L156 110L155 112L161 115L152 114L149 111L151 109L143 106L147 112L140 111L142 109L142 108L141 106L138 108L137 104L127 104L127 103L132 100C128.294 99.1774 125.867 100.71 124 104L120 103L115 105L117 110L101 110L102 113C92.3093 111.515 82.6821 124.962 79 133L77 131C59.3106 155.607 32.642 187.008 28 218L29 218L35 202L41 204C41.521 199.452 53.8557 202.15 59 202L57 199L64 204L67 202L76 203L77 206L78 206L94 200L98 201L99 196L93 196L99 194L97 190L100 187L107 191L108 188L106 186L111 183L115 174L112 176L115 170L111 170L114 166L113 161L118 162L123 157L120 150C124.866 148.122 130.403 147.182 129 141L133 144L134 144L134 137L139 140L138 138L141 139L139 142L143 141C145.375 144.62 148.388 143.512 152 142L152 144L155 146L159 146L160 141L175 143L178 146C178.424 149.671 183.448 151.377 184 147L199 147L199 150L202 147L204 149L205 149L216 143L224 145C231.773 144.343 238.111 146.212 242 154C249.274 151.362 253.809 147.648 261 152L261 147L266 149C267.633 145.554 268.274 143.39 265 141L265 140L273 141L272 143L275 143C275.802 137.12 282.546 138.185 287 139L293 132L297 132L295 134L295 135L301 140L300 134L311 134L311 130L321 136L325 130L333 135C335.896 131.347 340.066 128.658 337 124L345 119L345 118C340.593 118.12 338.725 117.09 337 113L335 113L334 117L337 119L336 120L330 118L337 112L336 109L341 107L340 100L337 105L334 103L333 103L325 108L328 106L327 101L323 104L321 102L307 107L305 105L305 108L300 107L300 101L302 98L298 100L289 98z"/>
<path style="fill:#203d65; stroke:none;" d="M453 122L449 127L446 125L440 130L435 128L433 132L424 134L424 138L419 140L420 144L405 141L401 144L402 149C397.922 145.486 394.436 146.173 392 151L388 153L389 150L385 148L384 148L378 155L379 152L370 153L365 155L365 156L369 157L364 162L363 157L355 166L368 163L369 165L363 173L360 174L363 183L369 182C370.135 185.397 371.577 185.579 375 185L374 190L376 187L380 188L380 194L380 195L371 195L374 197L374 198L368 198L368 203L366 203L366 205L372 208L370 203L377 201L375 206L384 206C385.968 203.104 387.881 204.306 391 205L390 208L397 206L404 204L408 210L408 207L415 211L414 215L420 211L419 208L424 211L421 213L424 214L430 212L430 208L439 211C440.784 208.245 444.152 206.879 447 209L449 209L450 207L453 209L457 206L458 209C460.167 206.833 461.399 202.48 459 202L459 201L465 201L463 205L468 202C471.013 204.606 476.01 200.664 479 199L476 205L482 206L484 203L483 198L486 198L487 201L493 201L493 200L487 197L492 194L492 198C496.126 197.656 508.153 204.351 509 199L514 201L513 194L522 201L521 197L529 199C529.398 202.349 531.721 203.809 535 204L536 207L537 207L538 204C540.604 204.754 548.753 204.067 546 208L558 206L555 211L562 208L562 212L564 212L564 206L568 206L577 214L577 210L585 217L580 218L581 223L584 222L584 226L585 226L590 221L590 226L601 227C602.327 233.192 607.933 227.126 611 229L612 229L614 227L614 235L618 234L620 235L623 238L622 241L630 238C632.403 245.24 644.07 243.117 650 243L648 241L648 240L650 238L651 238L653 240L657 244L653 250L664 255L661 250L666 258L670 257L669 249C672.219 249.703 673.603 250.65 674 254L679 255L679 256L678 264L681 272L678 273L682 280C680.508 291.753 684.716 306.424 686.996 318C690.014 333.319 690.856 356.616 688 372L690 388L691 388C698.104 331.787 690.551 273.925 670.575 221C663.129 201.273 651.853 183.94 643 165C639.12 163.848 634.777 153.416 631 157L630 157L628 154L627 154L624 157L626 155L626 154L622 154L622 153L625 152L617 151L619 146L615 145L615 146L616 149L610 145L609 145L604 147L605 150C600.347 147.938 595.821 145.575 598 153L586 139L587 142L582 139L583 137C578.938 134.969 573.326 139.343 572 141L570 136L563 137L566 142L559 140L559 143L558 143C555.588 141.645 554.568 142.351 554 145L553 145L553 141L549 141L551 138L545 134L536 131L538 134L525 133L520 135L520 134L522 132L509 125L504 126L505 133L498 127L490 130C486.493 126.333 483.475 126.342 480 130L480 127L471 123L472 127L467 125L464 126L463 123L456 127L453 126L453 122z"/>
<path style="fill:#847b8d; stroke:none;" d="M80 127L81 128L80 127z"/>
<path style="fill:#2e2160; stroke:none;" d="M311 130L311 134L300 134L301 140C297.312 137.502 295.715 135.999 297 132L293 132L287 139C281.99 137.811 277.149 137.374 274 142L277 143L277 144L274 145L274 147L283 151L284 147L287 148L288 145L294 146L289 148L285 155L280 156L277 166L276 166L274 160L271 159L270 162L267 160C264.652 164.822 247.61 166.698 244 163L243 166L232 166L231 170L230 170L231 164L227 167L223 161C216.106 163.86 216.36 168.184 208 166L209 169L205 168L203 175L209 177C209.479 180.805 212.87 179.778 216 179L218 181L218 182L216 186L210 185L211 182C205.95 184.587 203.658 189.754 202 195L207 196L206 200L213 202L214 202L215 198L212 197L212 196L215 194L219 194L218 198L223 202L228 199L227 203L231 202L232 211L235 209L241 209L241 205L242 205L244 213L246 211L254 213L252 208L256 208L258 204L263 207L262 203L266 202L265 197C271.2 196.268 276.824 196.43 277 204L278 199L280 193L281 193L281 197L287 194L287 198L290 197L289 193L299 190L299 191C295.223 192.265 295.431 194.334 296 198L306 191L307 191L314 190L316 193L315 197L322 196L323 196L335 198L333 196L333 195L338 186L342 186L340 192L340 193C343.709 191.759 344.401 189.787 344 186L352 193L352 190L357 190L356 182L359 183L363 183L360 174L363 173L369 165L368 163L355 166L363 156L359 157L360 154L358 152L349 153L352 159L349 156L348 156L343 160L346 154L340 155L340 154L344 154L344 153L340 153L340 152L346 147L342 147L342 144L346 144L345 140L351 142L347 139L349 137L349 134L338 133L341 136L341 137L336 138L337 131L333 135L325 130L321 136L311 130z"/>
<path style="fill:#3e165d; stroke:none;" d="M134 137L134 144L133 144L133 141L129 141C129.515 146.963 124.509 147.62 120 150L123 157L118 162L113 161L115 163L114 166L111 170L115 170L112 176L115 174L111 183L106 186L108 187L108 188L107 191L100 187L97 190L99 194L93 196L99 196L98 201L94 200L78 206L77 206L76 203L67 202L64 204L57 199L59 202C53.4597 202.061 41.2715 198.131 41 204L35 202L25 229L27 229L31 219L30 222L34 221L37 223L37 224L35 227L36 227L39 224L41 228L45 229L52 227L60 231L60 228L61 228L72 233L73 233L77 232L77 230C81.8855 230.834 88.0754 230.44 91 235L92 235L92 232L93 232L94 234L96 228L97 228C101.055 233.558 104.972 227.513 110.015 227.143C113.163 226.912 116.169 228.892 119 230L115 224L121 230L131 222L132 227L133 227L132 222L140 225L139 228L144 224L143 227L146 227L147 226L146 224L150 223L150 222L146 222L147 219L149 221L154 223L154 220L161 218L161 211L162 211L164 213L163 210L172 212L172 217L175 207L179 210L188 211L185 206L193 207L192 210L196 211L197 206L209 205L213 202C211.101 198.668 209.503 198.762 206 200L207 196L202 195L211 182L210 185L216 186L218 182L218 181L216 179C213.086 179.539 209.542 180.701 209 177L203 175L205 168L209 169L208 166C216.162 168.97 216.609 164.951 223 161L227 167L231 164L230 170L231 170L232 166C236.27 167.077 241.433 166.84 244 163C246.915 167.6 265.635 164.805 267 160L270 162L271 159L274 160C272.469 162.938 273.616 163.852 276 166L277 166C280.032 162.454 281.074 160.706 280 156L285 155L289 148L294 146L288 145L287 148L284 147L283 151L274 147L274 145L277 144L277 143L273 141L265 140L265 141C267.514 143.865 267.191 145.457 266 149L261 147L261 152C254.655 146.66 248.671 150.603 242 154C239.496 145.671 231.345 143.941 224 145L225 142L216 143L202 147L199 150L199 147L184 147C183.443 151.241 178.486 149.404 178 146L175 143L160 141L159 146L155 146C154.487 143.525 154.396 143.425 152 144L152 142C148.228 143.153 145.97 143.841 143 141L139 142L141 139L138 138L139 140L137 137L134 137z"/>
<path style="fill:#808092; stroke:none;" d="M626 141L627 142L626 141z"/>
<path style="fill:#303a6d; stroke:none;" d="M356 182L357 190L352 190L352 193L344 186L340 193L340 192L342 186L338 186L333 195L333 196L335 196L335 198L323 196L322 196L315 197L316 193L314 190L307 191L306 191L296 198C295.816 194.491 295.884 192.807 299 191L299 190C293.973 188.271 292.666 189.42 289 193L287 198L287 194L281 197L281 193L280 193L278 199L277 209L289 208L288 205L299 202L296 201L300 205L299 208L302 213L305 212L304 209L307 215L315 214L319 213L319 225L322 224L324 228L326 225L342 226L344 221L348 221L349 216L353 215L352 211L362 213L359 208L363 208L361 203L362 203L363 205L368 202L368 198L370 200L374 198L374 197L371 195L380 195L380 194L378 193L380 188L374 190L375 185L369 182L356 182z"/>
<path style="fill:#8b7c93; stroke:none;" d="M42 184L43 185L42 184z"/>
<path style="fill:#542170; stroke:none;" d="M215 194L212 196L212 197L215 198L209 205L197 206L196 211L192 210L193 207L185 206L188 211L179 210L175 207L172 217L172 212L163 210L164 213L162 211L161 211L161 218L154 220L153 221L154 223L149 221L148 221L148 219L147 219L146 222L150 222L150 223L147 226L146 227L143 227L144 224L139 228L140 225L132 222L133 227L132 227L131 222L121 230L115 224L119 230C115.981 228.331 112.663 226.243 109.039 226.799C103.879 227.591 101.88 232.314 97 228L96 228L94 234L93 232L92 232L92 235L91 235L91 232L77 230L77 232L73 233L72 233L60 228L60 231L59 231L52 227L45 229L41 228L39 224L36 227L35 227L37 224L37 223L34 221L30 222L31 219C27.213 221.317 27.09 224.799 27 229C22.3971 230.345 20.1527 238.725 18.4259 243C12.592 257.443 8 274.412 8 290L9 290C9.88242 283.054 10.1855 266.445 18 264C19.3132 258.13 22.7223 253.747 29 252.396C33.564 251.413 36.9105 254.754 40 250L41 250L43 253L42 257L46 257L46 258C40.7871 259.832 39.8219 262.797 41 268L46 269L45 266L48 269L51 266C59.3122 269.377 78.1412 273.166 85 265L92 267L101 273L102 270L105 272L107 268L108 271L121 268L121 265L124 269L130 267L130 269C133.318 268.403 137.057 264.755 139 268L140 268L141 265L152 265L153 269L158 261L161 262L160 259L169 256L170 265L192 268L193 265L200 267L199 269L209 271L208 268L212 269L216 265L215 271L219 267L229 273L229 274L227 274L227 275L231 277L241 274L246 277L246 278L243 283L244 283L244 280L261 276L260 273L262 271L265 272L276 267L276 269L281 265L286 264L286 260L280 260L280 253L282 253L281 250L283 250L283 243L279 239L282 234L290 235L291 232L296 234L291 228L292 224L287 225L284 219L291 218L294 220L297 211L302 210L302 209L299 208L300 205L296 201L299 202L298 199L288 205L289 208L287 206L277 209C280.761 199.417 273.583 195.43 265 197L266 202L262 203L263 207L258 204L256 208L252 208L254 213L252 211L246 211L245 211L245 213L244 213L242 205L241 205L241 209L239 211L235 209L232 211L231 202L227 203L228 199L223 202L218 198L219 194L215 194z"/>
<path style="fill:#1f5a72; stroke:none;" d="M487 197L493 200L493 201L487 201L486 198L483 198L484 203L482 206L476 205L479 199L468 202L463 205L465 201L459 201L459 202L461 203L458 209L457 206L453 209L450 207L447 209C445.077 206.214 439.717 207.652 439 211L430 208L430 212L421 213L424 211L419 208L420 211L414 215L415 211L408 207L408 210L404 204L397 206L390 208L391 205C387.847 203.964 384.94 201.614 384 206L375 206L377 201L370 203L372 208L366 205L368 203L368 202L362 203L361 203L363 208L359 208L362 210L362 213L352 211L353 215L349 216L348 221L344 221L342 226L334 225L335 227L331 227L336 239L344 235L345 243L341 243L341 241L339 241L337 247L329 248L329 249L331 251L336 249L346 248L346 252L350 253L371 253C374.311 258.665 384.974 257.146 391 258L392 255L405 255L405 254L398 250L407 253L416 252L418 257L419 257L422 255L434 260L433 263L452.91 268.587L479 271L480 268C475.398 264.559 482.46 261.911 485.91 262.778C497.547 265.7 510.544 274.795 523 273L527 274L526 278L549 283C551.604 289.034 556.968 289.523 563 290L563 289L561 289L561 288L565 287L573 290L573 293L587 297C593.492 297.133 605.757 301.192 610 306L623 308L621 311L643 326L645 332L645 333L655 337L654 340L663 343L672 340L672 338L663 331L663 330L668 330L667 327L668 327L669 331L673 331L672 326L673 326L679 329L678 326L681 323L680 313L687 335L688 335L682 280C679.389 278.31 676.156 272.625 681 272L678 264L679 256L679 255L674 254C673.84 250.302 672.73 248.939 669 249L670 257L666 258C665.426 254.2 664.822 251.33 661 250L664 255L653 250L657 244L651 238L650 238L648 240L648 241L650 243C643.445 242.237 633.938 245.141 630 238L622 241L623 238L620 235L618 234L614 235L614 227L612 229L611 229L610 227L609 227C606.152 229.657 603.335 230.557 601 227L590 226L590 221L585 226L584 226L584 222L581 223L580 218L585 217L577 210L577 214L568 206L564 206L564 212L562 212L562 208L555 211L558 206L546 208L548 206L538 204L537 207L536 207L535 204C532.701 204.46 528.381 201.478 529 199L521 197L522 201L513 194L514 201L509 199L492 198L492 194L487 197z"/>
<path style="fill:#3e3878; stroke:none;" d="M304 209L302 213L302 210L301 210L297 211L294 220L291 218L284 219L287 225L292 224L291 228L296 234C293.059 233.144 290.804 231.344 290 235L282 234L279 239L283 243L283 250L281 250L282 253L280 253L280 260L288 260L287 263L292 262L289 267C294.446 267.969 295.079 262.444 300.015 261.492C304.097 260.704 306.348 264.623 310.039 265.323C315.968 266.449 322.671 260.294 324 255C327.607 254.882 333.423 252.923 329 249L329 248L337 247L339 241L341 243L345 243L344 235L336 239L331 227L335 227L335 226L326 225L324 228L322 224L319 225L319 213L315 214L313 216L307 215L304 209z"/>
<path style="fill:#4c448e; stroke:none;" d="M345 248L336 249L324 255C322.107 259.751 315.784 266.15 310.039 264.897C306.268 264.075 304.289 260.629 300.015 261.248C295.201 261.945 294.055 267.002 289 267L292 262L287 263L288 260L285 261L286 264L281 265L276 269L276 267L265 272L262 271L261 276L255 276L256 281L249 284L248 284L247 284L247 282L246 282L245 282L241 284L240 288C237.874 286.91 234.528 284.902 234 288L227 288L228 291L215 291L215 296L219 296L219 297L213 297L213 298L229 300L238 297L236 299C238.816 306.005 258.577 297.233 266 298C270.334 290.609 279.205 289.876 287 288C289.063 280.78 297.7 275.468 304.667 273.667C308.51 272.673 316.562 273.612 317 270L318 270L319 272L322 266L329 265C330.176 273.887 341.449 263.615 345 262C344.259 258.412 344.118 255.292 348 254L348 251L346 252L345 248z"/>
<path style="fill:#6c3473; stroke:none;" d="M40 250C33.2736 257.043 19.5876 248.519 18 264C10.0833 265.461 9.53493 283.231 9 290L8 290L8 285L7 285L4 319L5 319L14 288L22.1042 284.161L38 285L38 284C33.6393 281.947 30.8166 281.793 29 277L32 274L33 274L32 279L48 281L48 279C54.0639 280.574 67.6081 276.828 71 282L76 282L95.385 279.675L104 278L112 277C113.827 282.211 121.327 282.014 126 281L126 283L136 278C138.57 282.729 159.498 281.917 164 279L170 285L173 284L179 286C180.343 290.046 183.065 289.953 187 290L187 289L186 286L181 285L182 279L175 284L175 280L156 274L157 271C151.708 271.619 146.431 272.486 142 269C137.313 269.867 133.667 270.435 130 267L129 267L124 269L121 265L121 268L107 268L105 272L102 270L101 273L92 267L85 265C75.6385 272.384 61.2095 268.64 51 266L48 269L45 266L46 269L44 267L41 268C40.2183 262.901 41.4255 260.454 46 258L46 257L42 257L43 253L40 250z"/>
<path style="fill:#316b9a; stroke:none;" d="M398 250L405 254L405 255L392 255L391 258L380 257C376.663 263.257 371.333 263.322 365.285 265.31C353.716 269.113 343.201 274.457 331 276L332 278L315 283L315 284L355 279.959L369 277L391 276L391 275L383 276L396 274.367L417 273L417 271L436 272L435 275L443 274L452 275L451 272L456 274L457 271L473 274L473 273L433 263L434 260L422 255L419 257L418 257L416 252L407 253L398 250z"/>
<path style="fill:#445599; stroke:none;" d="M348 251L347 254C343.235 254.648 344.077 259.129 345 262L335 269L329 265L322 266C321.19 267.822 320.028 272.201 318 270L317 270L316 273C305.069 266.519 291.491 281.947 285.54 288.426C283.133 291.047 279.875 291.934 278 295L284 294L301 282L332 278L331 276C346.9 274.745 365.912 267.007 380 260L379 256L371 253C363.837 255.634 355.03 253.263 348 251z"/>
<path style="fill:#5f297f; stroke:none;" d="M167 256L160 259L161 262L158 261L153 269L152 265L141 265L140 268L139 268L139 265L131 268L131 269L142 269C145.38 273.018 152.341 272.1 157 271L156 274L175 280L175 284L182 279L181 285L186 286L185 289L191 289L192 292L207 291C208.967 296.127 213.033 296.127 215 291L228 291L227 288L234 288C234 284.394 237.741 287.168 240 288L241 284L245 282L246 282L247 282L247 284L248 284L249 284L256 281L255 278L244 283L243 283L246 278L246 277L241 274L231 277L227 275L227 274L229 274L229 273L219 267L215 271L216 265L212 269L208 268L209 271L199 269L200 267L193 265L192 268C184.204 263.657 178.383 264.473 170 265L169 256L167 256z"/>
<path style="fill:#0e7279; stroke:none;" d="M480 268L479 271C484.046 271.105 488.223 271.429 491 276C504.076 273.821 509.884 281.961 522 286C526.359 287.453 534.734 289.062 534 292L544 295L545 287C552.197 291.215 560.292 296.487 568.001 299.612C572.291 301.351 578.246 301.599 579 307L570 304C572.858 309.039 590.853 319.706 596 319C596.689 322.197 598.054 321.746 601 321C602.358 323.456 604.864 325.064 602 327L602 328C609.106 330.608 619.15 335.133 624 341L629 340L641 348L649 354C661.354 354.194 667.042 368.832 678 372C676.477 381.009 684.452 383.126 687.883 389.39C689.919 393.109 688 401.685 688 406L689 406C689.342 398.06 694.735 377.885 688 372C691.267 358.277 688.045 342.405 685.189 329.004C683.911 323.008 684.909 317.532 680 313L681 323L679 329L673 326L672 326L673 331L669 331L668 327L667 327L668 330L663 330L663 331L666 331C666.155 335.724 667.11 337.619 672 338L672 340L663 343L654 340L655 337L645 333L645 332L648 332L643 326L621 311L623 308L610 306C607.123 301.075 592.754 296.332 587 297L573 293L573 290L565 287L561 288L561 289L563 289L563 290C556.923 289.227 552.439 288.426 549 283L526 278L527 274L523 273C509.824 273.775 498.304 264.826 485.972 262.25C481.876 261.394 473.089 266.512 480 268z"/>
<path style="fill:#117f85; stroke:none;" d="M467 269L473 273L473 274L457 271L456 274L451 272C454.615 277.641 473.191 279.07 480 280.865C501.489 286.531 520.986 293.881 540.651 303.836C545.483 306.282 550.776 306.202 555 310C567.294 311.008 579.954 323.585 590.128 329.73C595.127 332.75 602.105 333.62 605 339L622 344L634 355L642 357C643.263 364.96 655.139 370.208 662 373L661 376L681 384L678 372C668.569 367.639 660.433 352.52 649 354C647.303 349.912 645.397 348.495 641 348L629 340L624 341C620.705 335.049 608.504 329.496 602 328L602 327L605 327L601 321L596 319C589.914 318.86 574.242 309.04 570 304L579 307C578.734 301.439 573.4 301.392 569 299.612C560.708 296.257 553.233 290.682 545 287L544 295C540.789 292.04 538.311 291.197 534 292C534.023 288.45 526.242 286.62 523 285.694C511.866 282.517 502.786 271.593 491 276C488.225 269.03 473.52 268.18 467 269z"/>
<path style="fill:#208c9e; stroke:none;" d="M403 275L409 273L410 273L420 275L418 278C436.22 278 456.46 279.888 474 284.939C488.077 288.992 503.239 295.661 518 297L539 311L544 310C544 312.826 545.142 312.791 548 313C544.567 306.371 534.522 302.368 528.17 298.758C509.071 287.903 488.315 281.266 466.985 276.633C460.25 275.171 448.211 277.795 443 274L435 275L436 272L417 271L417 273C412.379 271.633 406.175 270.654 403 275z"/>
<path style="fill:#3690c9; stroke:none;" d="M383 276L391 275L391 276C378.481 276.539 362.247 282.552 351 288L351 289L404 282.354L464 288C462.373 283.373 457.341 283.742 453 283.13C443.005 281.722 433.01 281.265 423 280L423 279L431 279L431 278L418 278L420 275L410 273L383 276z"/>
<path style="fill:#7d4477; stroke:none;" d="M32 274L29 277C30.1467 282.355 33.2008 282.572 38 284L38 285L21.2091 283.907L14 288L5.50849 312.285L3 340L4 340C4.00863 326.971 12.733 322.678 18 312C21.556 313.185 23.4265 313.867 24 311C28.0663 311.966 31.3667 312.651 34 309C37.6509 310.951 41.5435 310.409 44 307C49.6158 310.931 62.0743 307.143 69 307L69 306L61 305L61 304C66.505 302.561 74.9856 302.038 77 296L82 298L83 298L84 296L89 298L88 295L108 296L111 294L112 297L113 297L111 291L104 292L104 291L111 288L103 285C105.714 282.467 107.9 281.755 111 284L112 284L113 284L113 282L119 282L119 281L112 277L104 278L95.9105 279.072L76 282L71 282C69.974 277.212 53.1343 279.863 48 279L48 281L32 279L32 274z"/>
<path style="fill:#5657af; stroke:none;" d="M301 282L284 294L278 295L287 289L287 288C276.177 289.465 268.276 292.668 261 301L264 301L264 302L261 302C260.547 304.793 259.999 305.636 263 306L263 307L260 311L250 311L250 312L255 315C262.862 312.503 272.693 307.442 281 309C286.473 299.77 301.469 293.698 310.91 289.52C315.117 287.658 321.499 287.857 324 284L315 284L315 283C320.124 282.519 325.284 281.35 327 276L301 282z"/>
<path style="fill:#5669d1; stroke:none;" d="M369 277C363.387 282.239 349.316 279.828 342 280.546C337.148 281.022 332.648 283.687 328 284.98C314.832 288.643 291.757 292.203 285 306L292 305L292 306L281 312L286 311L286 312C277.875 313.538 252.538 320.288 250 329L259 327L257 331L315 304L314 299L345 288.258L377 280L369 277z"/>
<path style="fill:#70318b; stroke:none;" d="M126 283L126 281L113 284L112 284L111 284C108.485 281.137 105.061 282.083 103 285L111 288L104 291L104 292L111 291L114 298L137 298C138.986 306.532 158.664 296.737 164 305L172.075 302.038L183 303C187.297 307.911 192.702 301.522 197 299.697C202.362 297.42 213.052 297.139 219 297L219 296L215 296L215 293C211.259 295.207 209.24 294.738 207 291L192 292L191 289C186.055 289.624 181.752 290.99 179 286L173 284L170 285L164 279C157.734 281.441 141.245 282.582 136 278L126 283z"/>
<path style="fill:#239ab0; stroke:none;" d="M423 279L423 280C434.86 282.202 447.141 281.491 458.981 284.188C463.368 285.188 466.428 288.536 470.997 289.554C476.895 290.868 488.801 292.767 492 298L536 313L533 309L539 311L518 297C503.446 294.721 489.016 288.975 475 284.939C458.292 280.128 440.268 278.859 423 279z"/>
<path style="fill:#476075; stroke:none;" d="M687 279L687 283L688 283L687 279z"/>
<path style="fill:#4886d9; stroke:none;" d="M351 289L351 288L355 287L355 286L314 299L315 303L366 290.464L410 284L392 283.49L351 289z"/>
<path style="fill:#28bfd5; stroke:none;" d="M387 288L387 289C413.406 289 441.212 291.869 467 297.22C477.509 299.4 487.812 305.644 498 307C499.736 312.228 504.43 311.527 509 312.901C518.431 315.738 529.285 321.706 539 322L539 321C531.877 318.223 526.183 311.1 519.714 306.853C512.435 302.074 500.641 298.86 492 298C490.305 292.205 473.718 289.85 468 288.648C440.462 282.858 414.357 284.752 387 288z"/>
<path style="fill:#4ecafe; stroke:none;" d="M377 289L377 290L398 290L398 291L381 291L383 299L384 300C390.521 298.41 397.998 298.793 404 302L405 302C409.184 299.992 416.281 301.182 420 304L427 303L435 312C439.297 310.715 442.359 313.839 445 317L447 316L448 319L455 318L454 321L475 323L475 324L461 324L461 325L527 330C521.115 320.632 503.622 316.556 494 311.892C456.446 293.69 418.331 289 377 289z"/>
<path style="fill:#50aafe; stroke:none;" d="M283 320L283 324L295 317L295 318L290 319C289.853 323.497 288.85 325.593 285 328L287 332L284 331L278 338L278 345L277 345L275 343L276 356L276 371L276 372C298.461 368.636 322.272 354.302 344 347.004C385.512 333.06 431.146 324 475 324L475 323L454 321L455 319L455 318L448 319L447 316L445 317C442.92 313.304 439.166 309.661 435 312L427 303L420 304C417.219 300.817 408.39 299.455 405 302L404 302C398.985 298.196 389.763 297.947 384 300L383 299L381 291L398 291C387.951 286.783 369.422 289.59 359 291.789C331.066 297.684 307.101 305.759 283 320z"/>
<path style="fill:#8b3f8f; stroke:none;" d="M108 296L88 295L89 298L84 296L82 298L77 296C73.8706 301.646 66.6752 302.032 61 304L61 305C71.4796 306.324 95.0228 309.313 104 303C108.88 311.296 138.07 312.026 145 306L149 307L149 309L156 305L157 305C159.407 308.628 162.858 308.903 167 309L167 305L164 302L148 300L140 302L137 298C130.949 298.52 118.792 292.722 115 298L114 298L111 294L108 296z"/>
<path style="fill:#2ad9ee; stroke:none;" d="M454 296L454 297L517 320L498 307L454 296z"/>
<path style="fill:#763d9c; stroke:none;" d="M183 303C175.36 304.36 167.37 297.801 167 310C174.438 310.323 181.626 313.462 188.759 313.824C195.513 314.167 201.048 310.928 208 311.861C214.34 312.712 225.088 315.771 229 309L235 308L238 310L256 300L265 298L265 297C258.586 297.864 235.786 305.855 238 297L229 300C219.171 299.137 207.722 296.258 198 298.858C192.556 300.314 188.619 307.163 183 303z"/>
<path style="fill:#029289; stroke:none;" d="M526 298L526 299C533.218 300.876 543.393 307.112 548 313L544 310L533 309L536 313L532 312C537.62 323.321 555.732 325.007 565.711 330.688C572.532 334.571 576.584 340.092 585 341L583 343L583 344C601.052 350.559 619.315 357.556 637 365.15C644.344 368.304 653.859 375.005 662 374L662 373C655.245 368.997 644.28 365.071 642 357L634 355L622 344L605 339C603.326 333.833 596.548 332.546 592.004 330.215C583.107 325.652 575.348 319.344 566.286 315.077C562.078 313.096 559.96 309.467 555 310C551.634 305.428 531.497 296.661 526 298z"/>
<path style="fill:#9245a5; stroke:none;" d="M256 300L238 310L235 308L229 309C222.678 315.625 213.951 312.174 206 311.37C200.747 310.838 196.989 313.097 192.001 313.576C188.106 313.95 185.524 311.933 181.91 311.387C173.861 310.169 163.252 311.239 157 305L156 305L149 309L149 307L145 306C129.678 315.386 107.749 304.511 91 309.505C85.8742 311.034 77.8931 310.244 76 316L111 316C111.623 319.938 121.497 318.773 125 318.926C132.725 319.263 140.942 316.125 148.412 316.917C155.63 317.682 162.362 322.503 170 322L170 324C184.378 323.138 199.087 325.838 213 324.91C215.617 324.736 229.832 323.604 225 319L225 318L260 311L263 307L263 306L260 305L261 302L264 302L256 300z"/>
<path style="fill:#ac5c8b; stroke:none;" d="M103 303L90 304.905L56.0394 307.209L44 307C41.5524 310.082 37.322 311.492 34 309C30.7448 312.061 28.2473 311.774 24 311L18 312C10.8927 321.803 4.00141 327.211 4 340L31 326.334L43 323L69 322L70 319C75.8793 323.09 89.2843 322.985 96 321C92.3209 315.397 82.1891 314.188 76 316C79.4016 309.754 96.2049 307.807 103 308.019C107.3 308.153 111.962 310.919 115 307L103 303z"/>
<path style="fill:#6a5fcc; stroke:none;" d="M281 309C273.213 306.874 262.182 311.95 255 315C254.227 311.393 251.335 311.698 248 312.389C239.507 314.148 234.075 318 225 318L225 319L227 321C246.879 319.84 266.721 318.416 286 312L286 311L281 312L292 306C288.859 304.71 281.828 305.134 281 309z"/>
<path style="fill:#06bdb1; stroke:none;" d="M528 312L528 313L539 321L539 322L523 317C526.091 322.768 531.805 323.839 536.961 327.188C551.672 336.744 569.701 341.902 587 346L587 345L583 344L583 343L585 341L566.561 330.688L539.975 319.12L528 312z"/>
<path style="fill:#15f8dc; stroke:none;" d="M514 315L517 320L505 316L505 317C551.315 336.85 585.786 376.613 624.999 406.688C640.289 418.414 658.165 425.571 674 436C671.877 425.602 651.422 421.632 644.093 413.714C637.741 406.85 630.499 402.364 623.681 396.164C620.295 393.086 618.885 388.759 615.231 385.85C611.208 382.647 606.223 381.496 602.44 377.901C590.915 366.95 581.791 350.51 569.54 340.854C564.818 337.132 555.716 336.526 550 334.655C541.732 331.949 528.485 323.776 523 317L514 315z"/>
<path style="fill:#b157b7; stroke:none;" d="M94 317L96 320L96 321L94 323L124 321.738L135.715 325.728L159 325L159 324L151 324L164 322L164 321L155 320L148 316L125 319L111 316L94 317z"/>
<path style="fill:#77bafe; stroke:none;" d="M258 330L260 332C256.41 334.628 257.856 338.022 257.653 341.996C257.24 350.063 254.631 355.584 258.414 363.91C260.461 368.415 266.329 372.428 262 377L262 378L277 373L278 371C276.801 366.19 273.128 360.68 276 356L275 343L277 345L278 345L278 338L284 331L286 332L287 332L285 328C289.48 326.123 289.945 323.625 290 319L295 318L295 317L283 324L283 320L287 316L258 330z"/>
<path style="fill:#4b6b7d; stroke:none;" d="M692 316L692 322L693 322L692 316z"/>
<path style="fill:#9556cc; stroke:none;" d="M170 324L170 322C164.828 321.933 154.327 319.597 151 324L193.999 329.765L266 320L266 318L213 324.829L170 324z"/>
<path style="fill:#c26896; stroke:none;" d="M70 319L69 322L43 323L30.9606 325.863L7 338L7 339C38.6294 332.213 67.3804 325 100 325L100 324L70 319z"/>
<path style="fill:#c463bc; stroke:none;" d="M94 323L94 324L100 324L100 325L61 327L61 328L157 330L136 325.421L125 321.448L94 323z"/>
<path style="fill:#b790a4; stroke:none;" d="M2 323L2 341L3 341L2 323z"/>
<path style="fill:#8c6aee; stroke:none;" d="M208 328L208 329L213 329L213 330L210 330L210 331L250 333L250 334L247 337C252.137 334.786 256.696 332.291 259 327L250 329L257 324L234 326.711L208 328z"/>
<path style="fill:#f0deea; stroke:none;" d="M1 324L2 372L3 372L2 341L1 324z"/>
<path style="fill:#ac5fdc; stroke:none;" d="M143 325L143 326L157 329L157 330C141.004 329.989 125.082 327.923 109 328.001C103.208 328.029 94.378 327.647 91 333L87 332C82.4584 340.679 66.8623 341.968 58 344L58 345L60 346L57 347C56.9033 353.264 51.0591 355.597 46.5941 358.965C40.1713 363.809 27.1447 374.443 25 382C18.7494 382.421 15.6458 385.664 17 392C50.8247 374.861 82.4693 351.702 122 350L122 349L112 349L112 348C128.646 347.228 141.277 335.887 158 338L168 337L199 337L199 336L196 336L196 335L212 332L212 331L210 331L210 330L213 330L213 329L143 325z"/>
<path style="fill:#5af4fe; stroke:none;" d="M429 327L429 329L462 333.829L549 346C542.368 334.33 527.994 331.06 516 328.804C486.612 323.277 458.383 327 429 327z"/>
<path style="fill:#ac58c7; stroke:none;" d="M9 338L9 339L11 340L8 341C13.6048 353.717 13.3206 370.24 13 384L11 383L10 394L17 392C16.3953 385.963 18.9911 382.806 25 382C28.5556 374.458 39.8563 364.788 46.5941 359.594C51.3198 355.951 57.2697 353.759 57 347C58.9104 346.421 60.3337 346.015 58 345L58 344C66.2063 342.793 83.9569 340.665 87 332L91 333C95.7149 328.054 103.475 328.054 110 328C103.081 325.097 92.4799 327 85 327C58.4972 327 34.6891 332.709 9 338z"/>
<path style="fill:#48e6fb; stroke:none;" d="M385 335L385 336L389 336L387 339L391 340C391.58 345.234 397.09 342.127 401 342.005C411.962 341.662 421.028 338.231 432 341C439 336.123 460.377 341.28 469 341.911C491.674 343.572 514.976 344.654 536.985 350.719C549.752 354.238 562.1 360.445 575 364C569.132 355.375 556.784 348.421 548 343L549 346C520.771 337.319 492.087 336.749 463 333.829C450.083 332.533 437.111 327.507 424 328.104C410.887 328.702 397.965 333.254 385 335z"/>
<path style="fill:#b86ffe; stroke:none;" d="M196 335L196 336L199 336L199 337L168 337L158 338C141.382 334.913 128.448 346.52 112 348L112 349L172 349L172 346L176 346L165 340L165 339L223 341L222 339L236 338L236 337L233 337C233.551 331.566 228.481 331.352 224 330.619C214.296 329.03 205.254 333.795 196 335z"/>
<path style="fill:#b1ccfe; stroke:none;" d="M264 379L264 378L262 377C267.729 373.292 260.314 367.254 258.414 362.961C255.389 356.124 254.563 337.357 260 332C254.24 330.425 233.649 342.36 231.657 348.184C230.141 352.621 234.292 358.209 236.002 362.039C237.456 365.298 236.15 369.56 238.032 372.446C243.667 381.09 255.724 381.359 264 379z"/>
<path style="fill:#a693fd; stroke:none;" d="M233 332L236 337L236 338L222 339L223 343L215 344L215 345C230.708 345.675 237.664 345.03 250 334L233 332z"/>
<path style="fill:#62c8f9; stroke:none;" d="M308 371L310 383C315.118 385.778 314.867 390.77 314 396L322.584 406.544L333.526 414.414L342.76 427.88L355 441L365 436L365 435L360 437L360 433C352.117 429.077 341.17 416.228 341 407L337 406L332 393L335 392L336 392L334 389L340 376L340 363L359 356L359 350C369.024 349.758 383.979 347.998 391 340L387 339L389 336C372.939 336.011 358.605 343.07 344 348.689C336.805 351.457 327.848 352.974 321.301 357.049C315.708 360.531 313.769 367.61 308 371z"/>
<path style="fill:#496773; stroke:none;" d="M693 338L693 357L694 357L693 338z"/>
<path style="fill:#943baf; stroke:none;" d="M3 340L6 396L12 395L11 383L13 384C13.729 371.492 14.6668 351.975 8 341L11 340L3 340z"/>
<path style="fill:#c999fe; stroke:none;" d="M165 339L165 340L176 346L172 346L170 349L170 350L198 355L198 354L186 347C198.431 350.941 218.285 351.027 231 348L231 347L215 345L215 344L223 343L223 341L165 339z"/>
<path style="fill:#3bd9f2; stroke:none;" d="M415 345L412 346L412 347L422 348L422 349L419 351L417 351L416 349L415 354L419 352L418 355C428.597 351.615 439.642 356.062 450.004 355.638C456.405 355.377 462.81 353.066 469.285 352.924C499.078 352.27 530.737 356.753 558.911 366.051C571.627 370.248 583.31 380.28 596 383C589.294 368.722 571.796 362.651 558 358.627C551.104 356.615 544.746 352.627 537.961 350.719C516.492 344.683 493.202 343.201 471 341.965C461.313 341.425 451.696 340.432 442 339.961C438.456 339.789 434.556 338.12 432 341C426.774 339.452 412.941 335.951 415 345z"/>
<path style="fill:#925fa4; stroke:none;" d="M2 341L2 357L3 357L2 341z"/>
<path style="fill:#43b5f4; stroke:none;" d="M359 350L359 356L340 363C339.61 368.181 336.335 371.28 340 376C334.578 379.042 335.307 383.514 334 389L336 392L335 392L334 390L332 393L337 406L341 407C340.616 415.84 351.567 430.403 360 433L360 437C371.881 432.564 387.571 427.991 395 417L389 413L392 412L392 407L390 404L386 398L381 402L389 387L387 388L387 387L396 381L396 377L397 377L399 379L400 375L403 376L404 375L403 372L416 367L416 364C420.611 363.694 427.43 362.731 429 358L434 358L431 354L430 354L418 355L419 352L415 354L416 349L419 351L422 349L422 348L412 347L412 346L415 345C411.439 339.921 405.458 341.786 400 342.014C385.616 342.615 373.182 349.232 359 350z"/>
<path style="fill:#1bdbbc; stroke:none;" d="M571 341C573.137 349.484 580.688 354.594 586.336 360.793C591.862 366.858 596.955 374.243 603.289 379.457C606.913 382.439 611.568 383.494 615.231 386.514C624.311 394.001 625.586 399.035 638 402C634.831 395.506 623.714 383.366 617 381L613 375L614 373L610 371L611 368L606 368C605.837 361.977 593.198 356.402 598 350L571 341z"/>
<path style="fill:#82d3fe; stroke:none;" d="M289 367L291 369C287.333 370.628 286.549 377.031 291 378L304 409C307.461 410.005 308.927 411.314 309 415C313.088 417.205 314.773 421.252 318.209 424.24C323.674 428.992 330.255 432.789 336.015 437.232C339.411 439.853 344.323 444.78 348.995 444.276C352.4 443.909 355.752 440.833 353.816 437.363C351.621 433.428 346.472 431.149 343.459 427.88C339.765 423.871 337.824 418.435 334.236 414.414C331.246 411.062 326.472 409.753 323.313 406.544C319.57 402.741 319.281 398.492 314 396C315.17 390.965 315.733 384.926 310 383L308 371L321.301 357.613L352 346L334 350.166L289 367z"/>
<path style="fill:#dac0fe; stroke:none;" d="M186 347C193.684 355.404 218.619 353.901 228 350L228 349L186 347z"/>
<path style="fill:#fe82fd; stroke:none;" d="M122 349L122 350L137.696 350.768L149 357C147.126 368.762 160.233 362.839 163 372C166.534 374.067 163.601 380.373 163 384C166.102 384.948 166.866 385.749 167 389L179 384L179 382C170.009 376.751 176.396 363.881 171 356L174 350L122 349z"/>
<path style="fill:#d6e1fe; stroke:none;" d="M201 354L201 357L201 358L207 359L205 356L220 355C222.28 363.034 229.056 369.706 237 372L231 348L201 354z"/>
<path style="fill:#fd69d3; stroke:none;" d="M45 377C61.486 373.615 78.2101 370.829 95 373C95.6514 378.184 102.591 375.265 106 374L112 375.454L123.801 372.87L136 379L135 382L140 380L141 380L143 382L143 376C151.698 379.113 154.263 369.078 147 365L149 357C144.575 355.462 141.306 351.182 136.826 350.264C115.063 345.805 87.539 355.192 68 363.909C61.6322 366.75 48.6927 371.217 45 377z"/>
<path style="fill:#15c5af; stroke:none;" d="M596 351L606 368L611 368L610 371L614 373L613 375L617 381C634.818 391.394 647.801 417.837 670 421C671.678 429.7 687.381 449.386 670 453L670 454L677 454C682.59 429.84 680.151 411.193 653 404C652.456 399.347 647.086 397.197 643.978 393.995C638.21 388.053 625.763 369.534 630 362C620.669 357.844 606.329 349.576 596 351z"/>
<path style="fill:#feacfe; stroke:none;" d="M171 356C173.876 362.069 171.557 387.106 182.998 380.698C185.431 379.335 187.629 377.477 190 376L188 371L188 370L193 354C183.694 352.194 177.549 348.609 171 356z"/>
<path style="fill:#fed9fe; stroke:none;" d="M195 351L198 354L198 355L192 355L188 370L188 371L190 376L173 389C185.934 383.266 201.471 386.159 215 385.143C229.643 384.043 237.246 372.392 251 384L216 400.691L200 410L232.91 406.299L265 413L264 410L272 409C266.427 403.583 252.541 404.595 245 404L245 403C247.837 402.433 247.074 402.659 245 401L282 403.034L310 419C305.1 413.071 297.358 409.258 291 404.999C278.241 396.452 265.515 387.652 252 380.309C239.471 373.501 226.34 368.72 220 355L205 356L207 359L201 358L201 357L201 354L215 353L195 351z"/>
<path style="fill:#32aeed; stroke:none;" d="M431 353L434 358L429 358C426.623 362.312 420.708 363.401 416 364L416 367L403 372L404 375L403 376L400 375L399 379L397 377L396 377L396 381C391.955 382.094 388.567 384.016 387 388L389 387L389 388L381 402L386 398C386.354 401.357 386.654 402.916 390 404L392 407L390 409L392 412L389 413L395 417L386 424L386 425L430 412.664L476 410L476 409L451 409L451 408C457.499 408 473.178 410.896 477 405C472.864 405.132 471.479 403.753 470 400L467 402L463 399L466 398L466 397L464 394L457 392L457 391L460 389L460 388L459 383L455 384L459 379L453 378L459 374L459 371L467 370L467 369L459 367C462.567 363.137 470.382 362.165 475 365L476 365L477 365C488.377 356.425 510.753 368.59 523 362L499 356L507 357C500.009 352.468 489.881 353.821 482 353.821C464.607 353.82 448.193 353.934 431 353z"/>
<path style="fill:#23bcdf; stroke:none;" d="M502 354L502 355L507 357L499 356L523 362L488.985 362.961L477 365L476 365L475 365L475 363C469.4 363.654 462.22 361.768 459 367L467 369L467 370L463 371L463 372L483 370L488 371L488 370L485 370L485 369L525 369L526 372C534.997 373.127 555.494 378.163 559 387C587.009 392.846 602.259 419.141 629 426L630 433L633 433L637 429L638 418L597 381C588.82 384.21 579.505 372.425 571.996 369.964C549.505 362.591 525.685 355.885 502 354z"/>
<path style="fill:#ab86bc; stroke:none;" d="M2 357L2 366L3 366L2 357z"/>
<path style="fill:#16b198; stroke:none;" d="M653 404L661 408L660 404L660 400L661 396L658 397L659 392L656 391L657 389L654 388L654 387L657 387L659 382L658 377L663 378C662.09 373.45 654.081 372.7 650 371C643.03 368.096 628.965 356.213 627 368C626.118 373.291 632.948 374.775 635 378C637.51 381.944 638.665 390.665 642 394C645.136 397.136 653.902 400.39 653 404z"/>
<path style="fill:#d46efe; stroke:none;" d="M147 363C150.032 368.837 154.28 378.019 143 376L144 398L145 403C154.504 403.52 164.074 396.176 170 389L167 388C167.688 384.955 165.758 384.451 163 384C164.001 380.391 167.596 372.966 163 372C161.833 365.249 152.831 364.507 147 363z"/>
<path style="fill:#9addfe; stroke:none;" d="M273 374L270 378L274 387L271 387L271 388C275.341 399.459 292.119 406.369 302 413.001C306.621 416.102 310.787 419.984 316 422L309 415C309.151 411.003 307.93 409.643 304 409L291 378C287.654 375.454 288.285 371.818 291 369C285.35 366.997 278.214 371.861 273 374z"/>
<path style="fill:#1aaae5; stroke:none;" d="M485 369L485 370L488 370L488 371L483 370L473.91 369.508L459 371L459 374L453 378L459 379L455 384L459 383L460 388L460 389L457 391L457 392L464 394L466 397L466 398L463 399L467 402L470 400C470.883 404.229 472.727 405.35 477 405C471.501 410.615 458.44 408 451 408L451 409C485.084 409 519.897 416.93 551 431.308C567.21 438.801 583.158 451.669 600 457L599 454L611 451C610.191 446.144 607.369 446.255 603 446L603 445L608 441L606 444C608.993 443.936 610.346 444.054 611 441L620 444L621 441L625 443L625 439L632 432C629.067 432 628.744 428.646 629 426C622.613 423.37 613.688 420.446 608.125 416.405C592.476 405.039 579.779 389.548 559 387C556.998 378.775 533.849 371.475 526 372L525 369L485 369z"/>
<path style="fill:#40666d; stroke:none;" d="M692 368L692 374L693 374L692 368z"/>
<path style="fill:#fd56c0; stroke:none;" d="M23 387L23 388L38.9992 387.772L70 382L70 383L64 385L64 386L76 383L81 385L80 382C87.946 381.654 96.7468 382.426 95 373C70.6128 367.582 44.5622 376.333 23 387z"/>
<path style="fill:#da4ab6; stroke:none;" d="M106 374L96 376C94.5635 381.69 85.1923 381.576 80 382L80 384C89.8634 384.628 95.8875 394.686 83 396L84 399L86 398L88 401L83 405L88 404L88 408L93 406L91 413L95 412C86.7054 420.304 81.3433 425.065 70 429L70 432L75 434L100 419L98 423C104.354 419.611 117.325 414.144 117 406L121 402L124 403L127 398C124.7 393.251 129.296 382.616 133 379C129.576 376.717 128.066 373.703 125 372C121.614 370.119 104.467 380.133 106 374z"/>
<path style="fill:#668c99; stroke:none;" d="M692 374L692 378L693 378L692 374z"/>
<path style="fill:#c3edfd; stroke:none;" d="M255 382L255 383L272 392L271 387L274 387L274 386L270 378L274 375L255 382z"/>
<path style="fill:#e0bcfa; stroke:none;" d="M34 479L42.0579 486.099L55 481.247L82 467L80 464C86.586 461.622 88.5527 455.842 93.1327 451.17C99.112 445.07 106.239 439.364 112.474 433.427C125.476 421.047 145.936 406.194 162 398.264C171.873 393.39 183.776 398.203 194 398.726C202.215 399.147 210.707 397 219 397L219 398L214 402L251 384C240.639 371.587 229.107 381.997 217 384.372C210.218 385.702 202.33 385.007 195.285 386.01C189.261 386.868 182.99 384.972 177.039 386.764C164.816 390.445 154.257 400.978 144 408.291C122.695 423.481 101.423 438.872 79 452.399C69.125 458.356 59.1444 464.205 49 469.691C44.0795 472.352 37.1371 474.211 34 479z"/>
<path style="fill:#03a59e; stroke:none;" d="M658 377L659 382L654 387L654 388L657 389L656 391L659 392L657 394L657 395L658 397L661 396L660 400L660 404L660 405C671.368 414.833 679.565 419.55 681 436L682 436L681 384L658 377z"/>
<path style="fill:#cb53e9; stroke:none;" d="M133 378C129.325 382.265 123.633 392.964 127 398L124 403L121 402L117 406C116.804 418.71 96.7061 424.657 94 436L105 435L108 431L106 435L138 413.371L150 403L145 403L144 398C146.707 393.748 143.433 384.224 141 380L140 380L135 382L135 378L133 378z"/>
<path style="fill:#e630a7; stroke:none;" d="M8 396L8 397C14.8042 400.92 15.8307 410.028 17.7045 416.91C20.7603 428.135 28.5667 436.89 28 449C36.1482 448.458 47.1251 441.082 51 434L59 435C58.8585 431.038 58.7979 428.118 63 427L61 424C69.2087 419.875 74.9273 413.195 85 414L88 404L83 405L88 401L86 398L84 399L83 396C86.7347 397.867 95.3921 392.088 92 387C89.1806 382.771 81.836 385 78 385C74.9726 385 75.5757 384.697 76 383L64 386L64 385L70 383L53 384.567L37 387.852L25 387.84L8 396z"/>
<path style="fill:#738c99; stroke:none;" d="M691 384L691 388L692 388L691 384z"/>
<path style="fill:#058c80; stroke:none;" d="M681 385C676.508 400.224 682.351 413.92 683 429C688.072 420.696 687.784 408.428 688.015 399C688.085 396.128 689.485 392.111 688.357 389.39C687.198 386.595 683.591 385.751 681 385z"/>
<path style="fill:#a578c3; stroke:none;" d="M5 392L5 396L6 396L5 392z"/>
<path style="fill:#ba549a; stroke:none;" d="M6 396L6 403L7 403L6 396z"/>
<path style="fill:#c0078a; stroke:none;" d="M7 396C7 403.509 7.68032 429.566 16 432L23 462L24 462L24 452L22 453L11 397L7 396z"/>
<path style="fill:#c5c1fd; stroke:none;" d="M80 464L82 467L79 468L79 469C95.6895 464.192 109.085 453.807 122 443L119 442L123 435L116 440C133.427 415.058 171.399 402.41 200 403L200 402L197 402L197 401L209 399L193 398.397L164 397.108L141 412.151L95.0185 448.633L80 464z"/>
<path style="fill:#b3b7fe; stroke:none;" d="M207 397L207 398L209 398L209 399L197 401L197 402L200 402L200 403C174.173 401.891 150.656 410.409 130.486 426.745C125.02 431.172 119.245 433.338 116 440L123 435L119 442L122 442L122 443L111 452L111 453C119.012 451.665 126.817 445.591 134 442C150.369 433.816 166.59 425.205 183 417C186.647 415.177 206.548 409.809 205 416L215 416L215 417L200 419L200 420L202 421L197 424L197 425L218 424L218 425C212.562 425.049 209.803 425.562 208 431L214 432L212 435L223 436L223 437L221 437L221 438L227 437L228 437L252 444C261.41 438.677 277.385 457.674 287 454L288 457L308 463L305 459L299 456L322 460L322 461L319 462L319 463L335 454L335 452C331.955 450.471 328.651 448.103 326 451L325 451C323.357 442.785 295.724 440.102 298 431L270 422L269 419C263.329 419.097 248.072 414.869 244 411L249 411C245.308 407.008 242.13 408.221 237.285 407.201C223.835 404.37 212.728 405.981 200 410L219 398L207 397z"/>
<path style="fill:#d319a8; stroke:none;" d="M11 399L22 453L24 452L25 467L26 467L26 463L27 463L27 467L28 467L27.9383 441L18.3002 417.83L11 399z"/>
<path style="fill:#dbaffd; stroke:none;" d="M245 401L245 403L245 404L272 409L264 410L265 413L244 411C246.926 415.073 263.91 419.385 269 419L270 422L298 431C299.186 441.401 318.641 443.858 325 451L326 451L336 452.072L347 446L347 444C325.408 431.965 306.538 411.641 283 402.998C273.635 399.56 255.068 400.49 245 401z"/>
<path style="fill:#6c9999; stroke:none;" d="M689.333 400.667L689.667 401.333L689.333 400.667z"/>
<path style="fill:#06d9cf; stroke:none;" d="M631 401L631 402C639.519 407.961 644.999 416.688 654 422.071C660.779 426.125 671.252 428.013 674 436C669.494 436.75 671.287 449.219 671 453C687.259 449.486 672.515 428.946 670 421C659.382 418.363 647.969 409.258 641 401L631 401z"/>
<path style="fill:#e083c1; stroke:none;" d="M7 405L7 409L8 409L7 405z"/>
<path style="fill:#e039be; stroke:none;" d="M85 414C75.455 412.432 68.1386 418.627 61 424L63 427L60 426L59 435L51 434C47.0903 438.731 34.4309 451.42 28 447L27 447C26.1729 453.69 28.3259 476.14 37 476L34 475L35 460C41.7051 459.939 49.746 456.93 52 450C56.2843 449.814 61.5152 446.104 63 442C73.4061 441.308 95.4805 430.749 101 422L98 423L100 419L75 434L70 432L70 429C80.9931 426.126 88.5613 421.393 95 412L91 413L93 406C88.434 407.369 85.9842 409.237 85 414z"/>
<path style="fill:#6da2a2; stroke:none;" d="M688 406L688 409L689 409L688 406z"/>
<path style="fill:#04eff4; stroke:none;" d="M629 409C637.33 420.817 656.962 440.298 671 445L670.397 433.329L656.039 426.286L629 409z"/>
<path style="fill:#6ed2f5; stroke:none;" d="M444 410L444 411L476 411L444 410z"/>
<path style="fill:#80a9ad; stroke:none;" d="M687 410L687 415L688 415L687 410z"/>
<path style="fill:#b4fefe; stroke:none;" d="M347 445L347 446C364.293 453.696 379.853 475.494 399 478C402.247 487.513 416.036 486.379 424 487.424C443.568 489.994 462.644 484.013 482 482.17C490.985 481.314 500.177 484.493 509 483C512.098 486.546 522.178 485.881 527 487.8C534.103 490.627 546.697 498.811 554 498.654C578.165 498.133 598.2 472.235 622 471C610.811 460.523 593.436 453.073 580 445.694C535.141 421.058 481.977 402.721 430 412.46C409.311 416.336 389.965 423.285 371 432.299C362.875 436.16 355.436 441.911 347 445z"/>
<path style="fill:#6edcff; stroke:none;" d="M476 411L476 412L481 412L476 411z"/>
<path style="fill:#d084b8; stroke:none;" d="M8.33333 412.667L8.66667 413.333L8.33333 412.667z"/>
<path style="fill:#b4d4fe; stroke:none;" d="M158 429L160 431L123 453C120.802 460.19 112.748 462.042 107.278 466.188C104.569 468.241 103.508 471.695 101 474L101 475L152 479L152 478L131 475L131 474L151.274 455.661L168 446L167 443L172 443C177.718 432.343 196.593 438.86 203 429L209 430C210.435 425.457 213.583 425.107 218 425L218 424L197 425L197 424C199.411 423.196 203.97 420.794 200 420L200 419L215 417L215 416L205 416C204.406 412.415 195.22 412.694 192 413.153C180.375 414.808 168.866 424.621 158 429z"/>
<path style="fill:#61d0fd; stroke:none;" d="M503 415L503 416L507 416L503 415z"/>
<path style="fill:#e041eb; stroke:none;" d="M63 442L52 450C48.7076 456.099 41.7969 459.836 35 460L34 475C41.2784 475.606 47.8634 470.891 54 467.424C66.8587 460.16 79.4571 452.6 92 444.808C97.9599 441.105 105.087 437.706 108 431L105 435L94 436L109 416C103.328 417.378 102.072 421.727 97.7901 425.045C89.0415 431.824 74.1341 440.573 63 442z"/>
<path style="fill:#d980bf; stroke:none;" d="M9.33333 417.667L9.66667 418.333L9.33333 417.667z"/>
<path style="fill:#7db2b6; stroke:none;" d="M686 417L686 420L687 420L686 417z"/>
<path style="fill:#19ccea; stroke:none;" d="M636 419L637 429L625 439L625 443L621 441L620 444L611 441L606 444L608 441L603 445L603 446C607.093 446.572 609.692 446.775 611 451L599 454C608.874 476.953 634.765 463.894 651 458.671C656.041 457.05 671.667 456.479 671.339 448.995C671.089 443.295 657.088 434.673 652.996 430.925C648.315 426.638 642.603 419.281 636 419z"/>
<path style="fill:#c774a7; stroke:none;" d="M10.3333 421.667L10.6667 422.333L10.3333 421.667z"/>
<path style="fill:#86b9bf; stroke:none;" d="M685.333 422.667L685.667 423.333L685.333 422.667z"/>
<path style="fill:#ce69a6; stroke:none;" d="M11 425L11 428L12 428L11 425z"/>
<path style="fill:#85cfcf; stroke:none;" d="M684.333 426.667L684.667 427.333L684.333 426.667z"/>
<path style="fill:#be71a3; stroke:none;" d="M12 429L12 432L13 432L12 429z"/>
<path style="fill:#90b4fe; stroke:none;" d="M203 429C195.974 436.361 175.199 433.096 172 443L167 443L168 446L131 474L131 475C157.516 475.55 187.584 488.261 211 499.969C220.981 504.96 230.614 512.069 241 516L241 518C228.253 523.032 216.418 531.969 204 537.833C187.893 545.439 170.43 550.944 153 554.333C147.99 555.307 127.738 559.451 129 560L129 561L118 561L118 562L125 562C124.569 566.918 126.328 573.712 132 574L130 578C131.941 579.617 134.866 582.115 132 584L132 585L136 587C132.411 586.37 130.256 585.906 128 589L132 590L130 594L133 597C139.373 596.94 145.378 603.589 148 609L156 611L156 618L171 620C172.506 627.423 181.863 630.187 188 626L189 626L193 629C196.579 625.543 200.972 624.88 205 628L212 627L212 624L223.371 621.08L225.462 610.861L245 594L245 593L247 590C252.097 591.823 259.232 585.066 256 580C260.827 579.412 265.179 583 268 578L272 578L272 574L282 570L281 579L290 577L290 573C296.306 572.731 294.919 566.938 299.313 564.176C304.258 561.067 309.633 566.166 314 568C309.932 561.276 300.343 556.666 294 552.141C278.096 540.796 261.043 525.588 243 518C265.375 497.578 294.827 480.985 320 464L319 462L322 461L322 460L299 456L305 459L308 463L288 457L287 454L259.325 445.014L252 444L228 437L227 437L221 438L221 437L223 437L223 436L212 435L214 432L203 429z"/>
<path style="fill:#66a4ad; stroke:none;" d="M683 429L683 432L684 432L683 429z"/>
<path style="fill:#d8e2fe; stroke:none;" d="M109 454L111 456L78 477L78 478L124 476L124 475L101 475L101 474C103.999 472.174 104.625 469.009 107.278 466.804C112.66 462.331 121.68 460.857 123 453L142.17 440.339L160 431L144 436.692L109 454z"/>
<path style="fill:#9c0e88; stroke:none;" d="M13 432C14.0802 444.372 19.7442 458.806 25 470L26 470L16 432L13 432z"/>
<path style="fill:#9cdcdc; stroke:none;" d="M682 433L681 441L682 441L682 433z"/>
<path style="fill:#93dbe6; stroke:none;" d="M680.333 442.667L680.667 443.333L680.333 442.667z"/>
<path style="fill:#9cd1e3; stroke:none;" d="M679.333 445.667L679.667 446.333L679.333 445.667z"/>
<path style="fill:#fefefe; stroke:none;" d="M318 467L339 473L326 481L327 484C340.548 477.629 345.811 505.345 347 514L261 516L261 507C254.071 507.753 247.197 512.562 243 518L258 525L256 521L294 518L360 520L358 536L343 553L342 553L341 551L340 551C336.241 554.166 332.791 556.04 330 551L296 552C303.358 565.026 325.497 575.209 338 583.05C342.181 585.672 347.812 590.798 353 590.653C360.796 590.435 372.405 578.133 378.325 573.305C392.488 561.753 415.086 544.869 433 540.185C453.874 534.728 475.912 547.062 497 544.826C512.583 543.174 529.776 531.109 544.911 534.245C560.365 537.448 574.393 549.629 590 551L590 550L588 549C591.134 546.609 592.567 544.975 592 541L593 538C605.564 531.634 615.982 509.181 622.367 497C625.08 491.824 627.797 481.409 634.715 480.367C640.31 479.525 648.398 486.6 654 488L654 487C645.008 481.751 630.521 471.396 620 471.137C610.204 470.895 598.289 479.675 590 484.227C576.777 491.488 560.494 497.336 546 501.576C509.355 512.294 475.434 510.733 440 496.862C427.459 491.953 406.701 491.58 399 478C385.825 474.978 373.031 462.532 361.985 455C358.203 452.421 352.693 446.86 348 446.539C342.164 446.139 333.684 453.915 329 457.003C324.632 459.883 320.541 462.326 318 467z"/>
<path style="fill:#80d8e6; stroke:none;" d="M678.333 448.667L678.667 449.333L678.333 448.667z"/>
<path style="fill:#b76aa6; stroke:none;" d="M18 450L18 453L19 453L18 450z"/>
<path style="fill:#8dc8db; stroke:none;" d="M677.333 451.667L677.667 452.333L677.333 451.667z"/>
<path style="fill:#559dda; stroke:none;" d="M665 455L665 456L673 455L665 455z"/>
<path style="fill:#a84bbf; stroke:none;" d="M673 454L673 455L675 456L655 487C660.831 490.307 663.518 485.118 665 480L667 482L677 454L673 454z"/>
<path style="fill:#f9f9fb; stroke:none;" d="M241 518L241 516C206.965 497.127 173.294 480.38 134 476.174C115.509 474.194 96.3892 476.549 78 478L78 477L111 456C105.819 454.207 99.5301 458.92 95 461.297C82.1938 468.016 68.9411 473.823 56 480.248C52.379 482.045 41.4715 485.236 41.3264 490.055C41.2237 493.464 44.8046 498.212 46.5455 501C51.7557 509.344 56.8248 518.241 62.5625 526.17C68.5611 534.459 73.4201 550.212 82.2747 555.825C91.381 561.597 108.719 559.004 119 559C161.412 558.984 206.036 541.062 241 518z"/>
<path style="fill:#d474f1; stroke:none;" d="M668 455L668 456L670 456L670 457L664 464L662 463C655.449 473.379 644.3 474.541 633 476L633 477L654.941 486.215L661.387 478.285L675 455L668 455z"/>
<path style="fill:#54beef; stroke:none;" d="M655 457L655 458L661 457L655 457z"/>
<path style="fill:#e680f8; stroke:none;" d="M622 471C634.111 476.764 655.504 478.205 662 463L664 464L670 457C665.023 454.912 659.926 456.804 655 458.28C644.537 461.415 630.39 463.656 622 471z"/>
<path style="fill:#72b7f4; stroke:none;" d="M649 459L649 460L655 459L649 459z"/>
<path style="fill:#80b3f4; stroke:none;" d="M643 461L643 462L648 461L643 461z"/>
<path style="fill:#c113d3; stroke:none;" d="M28 462L28 467L27 467L27 463L26 463L30 479L34 478L28 462z"/>
<path style="fill:#6dc6f9; stroke:none;" d="M636 463L636 464L640 463L636 463z"/>
<path style="fill:#7dc1fb; stroke:none;" d="M631 465L631 466L635 465L631 465z"/>
<path style="fill:#dbf6fe; stroke:none;" d="M259 506L261 516L347 514C346.377 506.431 339.764 474.982 327 484L326 481L339 473L319 465C298.095 472.926 277.206 492.96 259 506z"/>
<path style="fill:#88c3ff; stroke:none;" d="M626 467L626 468L631 467L626 467z"/>
<path style="fill:#ca8acd; stroke:none;" d="M24.3333 468.667L24.6667 469.333L24.3333 468.667z"/>
<path style="fill:#68d4ef; stroke:none;" d="M620 469L620 470L625 469L620 469z"/>
<path style="fill:#c465ca; stroke:none;" d="M25 470L25 473L26 473L25 470z"/>
<path style="fill:#aa0bb0; stroke:none;" d="M26 470L30 480L26 470z"/>
<path style="fill:#c277cf; stroke:none;" d="M26.3333 473.667L26.6667 474.333L26.3333 473.667z"/>
<path style="fill:#dd8ce7; stroke:none;" d="M27.3333 476.667L27.6667 477.333L27.3333 476.667z"/>
<path style="fill:#b883d1; stroke:none;" d="M29 480L33 491L42 487C37.3056 482.72 36.3425 476.799 29 480z"/>
<path style="fill:#efeef6; stroke:none;" d="M593 538L592 541L588 551L588 552C594.601 553.415 603.894 562.943 610.675 560.356C616.103 558.286 620.369 549.673 623.204 545C631.047 532.074 638.777 518.511 647.196 506C650.902 500.492 651.626 491.2 659 490C654.958 486.555 636.892 478.216 632.043 480.912C626.099 484.218 624.471 492.549 621.243 498C613.413 511.224 605.388 528.519 593 538z"/>
<path style="fill:#842faa; stroke:none;" d="M665 480L660 490C664.273 488.62 666.498 484.32 665 480z"/>
<path style="fill:#e3fefe; stroke:none;" d="M409 486L409 487C430.26 494.842 454.146 505.906 477 508.714C503.127 511.924 527.804 505.776 553 500L553 499L523 485.904L509 483L482 482.09L441 487.91L409 486z"/>
<path style="fill:#cac6d5; stroke:none;" d="M36 490C40.9927 507.458 53.2469 525.242 63.5895 540C67.0493 544.937 71.1001 553.006 77 555C75.8213 549.136 71.4584 544.912 68.1559 540.089C59.2812 527.129 40.0627 504.422 41 488L36 490z"/>
<path style="fill:#c7c5d2; stroke:none;" d="M608 561L608 562C618.246 562.688 621.665 554.441 627.565 547.13C640.887 530.623 651.346 508.867 661 490C651.715 489.081 650.054 500.452 645.82 507C638.039 519.033 630.655 531.721 623.204 544C619.648 549.862 614.88 558.884 608 561z"/>
<path style="fill:#b7b4c3; stroke:none;" d="M35 490C34.2795 496.141 38.9634 502.66 41.7809 508C49.1818 522.026 59.3762 546.538 74 554L50.3102 518L35 490z"/>
<path style="fill:#b7b3c3; stroke:none;" d="M612 563L612 564C621.082 564.464 627.529 553.172 631.326 545.999C641.388 526.996 654.654 510.047 663 490L651.391 507.985L624.001 550.579L612 563z"/>
<path style="fill:#dad7e2; stroke:none;" d="M41 492C43.9376 508.995 58.7669 526.965 68.1559 541.039C71.2059 545.612 75.3957 555.073 81 556C78.3328 548.201 72.6385 542.899 68.5031 535.961C60.2749 522.155 52.7555 503.025 41 492z"/>
<path style="fill:#e1f3ff; stroke:none;" d="M256 521C256.887 523.523 258.037 524.608 255 525L255 526L297 554C297 550.764 301.298 551.5 304 551.667C312.823 552.21 321.776 554.03 330 551C331.89 556.694 336.91 554.71 340 551L341 551L342 553L343 553L358 536L357 533L360 520C337.085 518.192 314.021 518 291 518C279.364 518 266.788 516.217 256 521z"/>
<path style="fill:#d2fefe; stroke:none;" d="M352 591L352 592L373 601L377 582C382.251 582.078 384.083 577.695 388.09 574.88C395.909 569.385 406.881 561.826 416.576 560.318C436.286 557.253 457.272 566.593 477 567L479 573C493.864 574.879 512.281 577.493 527 574L527 573L518 573L518 572L540 569L542 563L573 545C565.404 538.953 545.108 531.601 535.17 533.278C522.819 535.362 510.761 542.322 498 544.536C476.049 548.346 452.879 533.583 431 540.459C413.385 545.996 392.612 561.211 378.325 572.618C370.644 578.75 361.471 588.193 352 591z"/>
<path style="fill:#b4fefd; stroke:none;" d="M542 563L540 569C532.576 567.94 524.833 568.964 518 572L518 573L527 573L527 574L479 573L477 567C457.421 566.157 435.508 556.752 416 560.129C406.174 561.83 395.072 569.166 387.17 574.88C383.498 577.535 381.585 580.95 377 582L371 602C386.587 608.49 401.43 615.525 418 619.321C464.537 629.983 515.683 621.351 558 600.247C576.818 590.862 599.742 581.879 608 561C598.94 556.682 579.59 542.193 569.17 545.578C559.354 548.766 551.658 561.107 542 563z"/>
<path style="fill:#83add3; stroke:none;" d="M72 554C78.7506 566.511 91.5618 578.554 101.715 588.421C127.3 613.286 158.443 642.481 193 654L185 649L187 647L164 629C155.075 628.71 147.994 620.392 141.424 614.974C131.398 606.706 119.589 600.177 111.34 590C104.494 581.555 95.7495 564.918 86 560L86 559L92 559L92 558L72 554z"/>
<path style="fill:#9bc6f3; stroke:none;" d="M86 559L86 560C96.4379 567.855 103.699 582.186 112.188 592C119.822 600.827 130.568 607.117 139.715 614.286C147.2 620.152 153.921 628.881 164 629C165.409 633.064 169.312 633.884 172.576 636.38C185.077 645.94 191.188 648.467 205.259 641.28C210.246 638.734 215.955 638.336 217 632L207 635L212 627L205 628C201.854 624.349 195.63 625.176 193 629L189 626L188 626C181.221 629.206 173.502 627.472 171 620L156 618L156 611L148 609C146.316 603.32 139.284 595.876 133 597L130 594L132 590L128 589L136 587L132 585L132 584C135.4 582.139 132.51 579.273 130 578L132 574C126.861 573.302 124.8 566.631 125 562L118 562L118 561L129 561C120.048 554.885 96.6749 558.543 86 559z"/>
<path style="fill:#9fc6d4; stroke:none;" d="M599 577C605.588 573.925 612.79 570.859 616 564L612 564L613 562C606.319 562.503 598.595 570.125 599 577z"/>
<path style="fill:#a2b7fe; stroke:none;" d="M290 573L290 577L281 579L282 570L272 574L272 578L268 578L256 580C258.036 584.883 252.044 591.443 247 590L245 593L245 594L225.369 610.274L222.603 621.08L212 624L207 635L217 632C215.055 638.484 200.486 644.878 194 646C198.919 653.195 210.651 654.749 219 656L219 655L215 653C217.724 649.64 221.656 648.632 220 644L248 630L247 626L251 626C251 622.509 265.03 613.836 269 613C269.746 607.661 272.575 605.095 278 606L282 597L279 597L279 596L309 579L315 575L313 572L321 573C317.993 567.908 304.449 559.895 298.585 564.175C294.759 566.968 295.689 572.331 290 573z"/>
<path style="fill:#ccaefc; stroke:none;" d="M313 572L315 575L309 579L279 596L282 597L278 606L305 595C306.178 600.386 310.223 594.467 313 593.111C320.07 589.66 327.065 585.13 334 582L334 580C326.838 575.169 321.748 572.05 313 572z"/>
<path style="fill:#025ca9; stroke:none;" d="M587 584L587 585L593 583C587.16 589.569 579.749 593.885 573.275 599.746C540.638 629.29 503.377 649.509 463 666.424C442.113 675.175 418.892 685.514 396 687L396 688C416.433 687.831 436.85 680.121 456 674.029C501.783 659.462 546.922 635.357 581.17 601.17C590.656 591.701 601.533 583.289 609 572L587 584z"/>
<path style="fill:#c5c3fa; stroke:none;" d="M305 595C298.344 595.971 294.132 600.397 288.13 602.545C280.678 605.212 269.724 602.682 269 613C264.029 613.81 251.701 620.964 251 626L247 626L248 630L220 644L215 653L225 662C234.198 662.313 239.179 658.338 247 654L245 651L293.417 609.005L312 600L320 600L321 600C327.125 595.79 338.209 595.359 341 588L348 590C336.481 576.461 332.047 586.157 320 590.616C316.525 591.902 307.158 597.509 305 595z"/>
<path style="fill:#1479ca; stroke:none;" d="M574 593L578 592C572.669 597.776 565.149 601.491 559.384 606.876C504.346 658.287 424.401 679.631 351 687.871C331.576 690.052 311.412 687.054 292 687L292 688C321.976 688.619 350.657 693.72 381 690.83C390.203 689.954 398.124 686.553 407.015 684.626C451.937 674.887 494.923 656.175 533.17 630.8C548.199 620.829 561.41 610.788 575 599.005C580.996 593.805 588.818 589.938 593 583C586.636 585.004 577.828 587.155 574 593z"/>
<path style="fill:#ebc2fe; stroke:none;" d="M341 588L321 600L320 600L312 600C309.681 607.167 299.924 603.121 295 606.833C283.752 615.312 275.894 626.692 264.833 635.5C257.088 641.668 247.916 643.928 245 653C252.043 653.315 258.119 647.097 264.039 643.766C280.43 634.544 296.383 623.758 312 613.258C317.082 609.841 331.25 596.523 334 607C339.667 603.128 349.98 597.74 352 591L341 588z"/>
<path style="fill:#80cff9; stroke:none;" d="M352 592C344.419 601.449 331.627 608.223 322.09 615.542C297.569 634.358 273.916 656.085 246 670L246 671L272.675 670.491L294 660C298.122 652.303 306.791 652.051 312.741 646.614C328.512 632.202 348.585 615.492 358 596L353 594L355 593L352 592z"/>
<path style="fill:#389ae1; stroke:none;" d="M455 625L455 626L459 626L461 629L461 630L445 631L445 635L443 633C438.206 635.149 433.553 635.462 438 641L431 641L432 645L422 645L416 647L409 651L408 657C402.945 655.38 399.106 653.043 398 660L391 660L391 662L384 663L386 664L386 665L380 664C378.811 668.103 377.162 669.896 373 671L355 682C347.255 679.87 337.981 682.79 330 682.985C312.099 683.424 293.783 682.956 276.039 680.871C263.302 679.375 253.332 671.534 240 674L240 675C256.233 679.305 272.238 684.709 289 686.714C361.741 695.419 437.471 678.108 502 645.549C523.854 634.522 541.976 622.807 560.094 606.876C565.645 601.995 574.126 598.339 578 592C563.994 593.245 550.239 604.088 537 608.947C510.999 618.49 482.789 625 455 625z"/>
<path style="fill:#5fb8f3; stroke:none;" d="M353 593L353 594L358 596C345.106 614.719 329.091 630.049 312.741 645.806C307 651.339 296.701 651.621 294 660C285.271 658.314 279.579 667.981 271.816 670.491C261.828 673.72 250.241 668.554 241 673L241 674C249.887 672.424 258.215 675.778 267 676.711C283.174 678.428 298.719 677.695 313.004 670.579C319.358 667.413 331.375 663.868 332 656C336.667 655.79 340.174 655.744 342 651L339 652C340.534 646.93 346.128 645.13 351 644L350 641L359 635L367 627L362 623L362 628L361 628L363 622L369 602L366 601L367 599L353 593z"/>
<path style="fill:#49a8e8; stroke:none;" d="M366 600L366 601L369 602C366.618 609.239 361.235 613.88 363 622L361 628L362 628L362 623L367 627C362.702 628.24 359.742 630.478 359 635C354.935 636.292 350.827 639.581 351 644C345.952 644.683 339.908 646.541 339 652L342 651C339.594 655.196 336.567 655.465 332 656C330.867 662.968 324.393 663.264 319.271 666.53C299.314 679.256 281.739 676.188 259 676L259 677L302 682.985L355 682L373 671C377.46 670.305 379.265 668.426 380 664L386 665L386 664L384 663L391 662L391 660L398 660C399.789 653.843 403.034 656.033 408 657L409 651C412.47 650.752 414.961 650.551 416 647C419.137 647.834 421.231 648.589 422 645L432 645L431 641L438 641L435 639L443 633L445 635L445 631L461 630L461 629L459 626L455 626L455 625L467 625L467 624C446.368 624 425.784 622.277 406 615.907C392.772 611.649 379.477 602.402 366 600z"/>
<path style="fill:#f8d2fb; stroke:none;" d="M228 662C231.58 665.815 244.955 669.82 250.015 668.092C256.925 665.731 263.964 659.019 270 654.88C284.138 645.186 297.481 635.21 311 624.896C317.148 620.206 323.288 615.588 329.15 610.522C331.086 608.849 335.11 605.771 332.663 602.898C328.776 598.335 310.831 613.369 307 615.857C289.455 627.253 271.665 638.19 253.996 649.369C246.816 653.911 236.72 662.234 228 662z"/>
<path style="fill:#c0d2ff; stroke:none;" d="M327 613L334 607L327 613z"/>
<path style="fill:#8ad9fb; stroke:none;" d="M436 622L436 623L471 624L436 622z"/>
<path style="fill:#b9d3f7; stroke:none;" d="M275 652L293 640C287.324 638.839 278.417 647.803 275 652z"/>
<path style="fill:#a2a8c8; stroke:none;" d="M183 644L183 645L187 647L185 649L226 669L207.001 656.522L183 644z"/>
<path style="fill:#d5c5de; stroke:none;" d="M200 652C203.3 656.545 209.296 657.381 213.961 660.07C226.754 667.447 232.661 676.566 248 670C243.128 666.077 237.681 666.868 232.17 664.674C220.506 660.031 213.695 652.588 200 652z"/>
</svg>
